<svg xmlns="http://www.w3.org/2000/svg" width="22.163265228271484" height="22.653060913085938" fill="none" style=""><rect id="backgroundrect" width="100%" height="100%" x="0" y="0" fill="none" stroke="none" class="" style=""/>


<g class="currentLayer" style=""><title>Layer 1</title><path d="M21.00000810623169,10.085737066268921 V11.005737066268921 C20.99880810623169,13.16213706626892 20.30050810623169,15.26043706626892 19.00930810623169,16.98753706626892 C17.71820810623169,18.71473706626892 15.903308106231691,19.97823706626892 13.83540810623169,20.58963706626892 C11.76740810623169,21.20103706626892 9.55730810623169,21.12763706626892 7.534468106231689,20.380337066268922 C5.51167810623169,19.633037066268923 3.7846581062316895,18.25183706626892 2.6109581062316893,16.442837066268922 C1.4372681062316897,14.633737066268921 0.8797881062316899,12.49383706626892 1.0216781062316893,10.34203706626892 C1.1635581062316893,8.19028706626892 1.9972081062316893,6.142047066268921 3.3982781062316896,4.502797066268921 C4.79935810623169,2.863547066268921 6.69278810623169,1.721107066268921 8.79618810623169,1.245867066268921 C10.899608106231689,0.770637066268921 13.10030810623169,0.988057066268921 15.07000810623169,1.8657270662689216 " stroke="#44a08d" stroke-width="2" stroke-linecap="round" stroke-linejoin="round" id="svg_1" class="" stroke-opacity="1"/><path d="M21.00000810623169,3.005737066268921 L11.00000810623169,13.01573706626892 L8.00000810623169,10.01573706626892 " stroke="#44a08d" stroke-width="2" stroke-linecap="round" stroke-linejoin="round" id="svg_2" class="" stroke-opacity="1"/></g></svg>